<svg xmlns="http://www.w3.org/2000/svg" viewBox="0 0 300 170" width="300" height="170" role="img" aria-label="Edelstahl-Räucherhaken hängen an einer Stange vor dunklem Holz">
  <defs>
    <linearGradient id="hk-wood" x1="0" y1="0" x2="0" y2="1">
      <stop offset="0" stop-color="#3d2c19"/><stop offset=".55" stop-color="#2a1d10"/><stop offset="1" stop-color="#120b05"/>
    </linearGradient>
    <linearGradient id="hk-steel" x1="0" y1="0" x2="1" y2="0">
      <stop offset="0" stop-color="#6d7b85"/><stop offset=".28" stop-color="#e8eef2"/>
      <stop offset=".55" stop-color="#9aa8b2"/><stop offset=".8" stop-color="#f2f6f8"/><stop offset="1" stop-color="#5d6a74"/>
    </linearGradient>
    <linearGradient id="hk-rod" x1="0" y1="0" x2="0" y2="1">
      <stop offset="0" stop-color="#b9c4cc"/><stop offset=".45" stop-color="#7f8c96"/><stop offset="1" stop-color="#4b565f"/>
    </linearGradient>
    <radialGradient id="hk-glow" cx=".5" cy=".2" r=".8">
      <stop offset="0" stop-color="#ffbe72" stop-opacity=".34"/><stop offset="1" stop-color="#ffbe72" stop-opacity="0"/>
    </radialGradient>
    <linearGradient id="hk-shade" x1="0" y1="0" x2="0" y2="1">
      <stop offset="0" stop-color="#040a0f" stop-opacity="0"/><stop offset="1" stop-color="#040a0f" stop-opacity=".85"/>
    </linearGradient>
  </defs>
  <rect width="300" height="170" fill="url(#hk-wood)"/>
  <g opacity=".55" fill="#191009">
    <rect y="8" width="300" height="3"/><rect y="41" width="300" height="3"/><rect y="74" width="300" height="3"/>
    <rect y="107" width="300" height="3"/><rect y="140" width="300" height="3"/>
  </g>
  <g opacity=".3" stroke="#5a4227" stroke-width=".7">
    <path d="M18 0V170M96 0V170M174 0V170M252 0V170"/>
  </g>
  <rect width="300" height="170" fill="url(#hk-glow)"/>
  <g>
    <rect x="-4" y="30" width="308" height="7" rx="3.5" fill="url(#hk-rod)"/>
    <rect x="-4" y="30" width="308" height="2.2" rx="1.1" fill="#e4ecf1" opacity=".8"/>
  </g>
  <g fill="none" stroke="url(#hk-steel)" stroke-width="5.4" stroke-linecap="round">
    <path d="M36 34c-9 0-13 7-13 14s5 12 12 12 12-5 12-13v-8c0-9 5-15 13-15s12 6 12 13"/>
    <path d="M92 34c-9 0-13 8-13 16s5 14 12 14 12-6 12-15v-9c0-10 5-16 13-16s12 7 12 14"/>
    <path d="M148 34c-9 0-13 7-13 14s5 12 12 12 12-5 12-13v-8c0-9 5-15 13-15s12 6 12 13"/>
    <path d="M204 34c-9 0-13 8-13 16s5 14 12 14 12-6 12-15v-9c0-10 5-16 13-16s12 7 12 14"/>
    <path d="M258 34c-9 0-13 7-13 14s5 12 12 12 12-5 12-13v-8c0-9 5-15 13-15s12 6 12 13"/>
  </g>
  <g fill="none" stroke="#ffffff" stroke-width="1.2" stroke-linecap="round" opacity=".45">
    <path d="M31 38c-4 2-6 6-6 10"/><path d="M87 38c-4 2-6 7-6 12"/><path d="M143 38c-4 2-6 6-6 10"/>
    <path d="M199 38c-4 2-6 7-6 12"/><path d="M253 38c-4 2-6 6-6 10"/>
  </g>
  <g opacity=".3" fill="#02070b">
    <ellipse cx="42" cy="92" rx="16" ry="4"/><ellipse cx="98" cy="96" rx="17" ry="4"/>
    <ellipse cx="154" cy="92" rx="16" ry="4"/><ellipse cx="210" cy="96" rx="17" ry="4"/><ellipse cx="264" cy="92" rx="16" ry="4"/>
  </g>
  <rect y="72" width="300" height="98" fill="url(#hk-shade)"/>
</svg>
